<svg width="129" height="138" viewBox="0 0 129 138" fill="none" xmlns="http://www.w3.org/2000/svg">
<path d="M74.7606 103.584C84.8883 103.584 93.0982 111.255 93.0985 120.718C93.0985 130.182 84.8885 137.854 74.7606 137.854C64.6327 137.854 56.4227 130.182 56.4227 120.718C56.4227 118.961 56.7053 117.266 57.2313 115.67C58.6683 118.646 61.87 120.718 65.5916 120.718C70.6556 120.718 74.7606 116.883 74.7606 112.151C74.7604 108.674 72.5427 105.682 69.3573 104.339C71.0653 103.848 72.8799 103.584 74.7606 103.584Z" fill="#3F47E0"/>
<path d="M129 87.8787C76.712 71.4014 17.7733 86.5059 0 96.1176C80.84 52.3995 34.4 17.3926 51.6 0L129 87.8787Z" fill="#3F47E0"/>
</svg>
